STARTFONT 2.1
FONT -FontForge-Henny Penny-Book-R-Normal--24-240-72-72-P-137-ISO10646-1
SIZE 24 72 72
FONTBOUNDINGBOX 34 43 -4 -15
COMMENT "Generated by fontforge, http://fontforge.sourceforge.net"
COMMENT "Copyright (c) 2012, Brownfox (gayaneh.b@gmail.com), with Reserved Font Name "Henny Penny""
STARTPROPERTIES 39
FOUNDRY "FontForge"
FAMILY_NAME "Henny Penny"
WEIGHT_NAME "Book"
SLANT "R"
SETWIDTH_NAME "Normal"
ADD_STYLE_NAME ""
PIXEL_SIZE 24
POINT_SIZE 240
RESOLUTION_X 72
RESOLUTION_Y 72
SPACING "P"
AVERAGE_WIDTH 137
CHARSET_REGISTRY "ISO10646"
CHARSET_ENCODING "1"
FONTNAME_REGISTRY ""
CHARSET_COLLECTIONS "ISO10646-1"
FONT_NAME "HennyPenny-Regular"
FACE_NAME "Henny Penny"
COPYRIGHT "Copyright (c) 2012, Brownfox (gayaneh.b@gmail.com), with Reserved Font Name "Henny Penny""
FONT_VERSION "1.001"
FONT_ASCENT 19
FONT_DESCENT 5
UNDERLINE_POSITION -2
UNDERLINE_THICKNESS 2
X_HEIGHT 14
CAP_HEIGHT 17
RAW_ASCENT 799
RAW_DESCENT 200
NORM_SPACE 6
RELATIVE_WEIGHT 40
RELATIVE_SETWIDTH 50
SUPERSCRIPT_X 0
SUPERSCRIPT_Y 8
SUPERSCRIPT_SIZE 14
SUBSCRIPT_X 0
SUBSCRIPT_Y 1
SUBSCRIPT_SIZE 14
AVG_LOWERCASE_WIDTH 123
AVG_UPPERCASE_WIDTH 172
ENDPROPERTIES
CHARS 233
STARTCHAR space
ENCODING 32
SWIDTH 270 0
DWIDTH 6 0
BBX 1 1 0 0
BITMAP
00
ENDCHAR
STARTCHAR exclam
ENCODING 33
SWIDTH 249 0
DWIDTH 6 0
BBX 3 24 1 -1
BITMAP
E0
E0
E0
E0
E0
E0
60
60
60
60
60
60
60
60
40
40
40
40
00
00
00
E0
E0
E0
ENDCHAR
STARTCHAR quotedbl
ENCODING 34
SWIDTH 292 0
DWIDTH 7 0
BBX 5 8 1 12
BITMAP
D8
D8
D8
D8
D0
50
50
90
ENDCHAR
STARTCHAR numbersign
ENCODING 35
SWIDTH 1030 0
DWIDTH 25 0
BBX 23 26 1 -7
BITMAP
000800
000800
001100
001100
002100
002200
002200
FFFC00
004FFE
008800
008800
011000
011060
03FF80
FF2000
064000
044000
04C000
0C8000
088000
190000
110000
020000
020000
060000
040000
ENDCHAR
STARTCHAR dollar
ENCODING 36
SWIDTH 799 0
DWIDTH 19 0
BBX 15 27 2 -5
BITMAP
0040
0060
0046
03FC
065C
0E48
0E48
0E88
0F88
0F80
0780
07C0
03E0
01F0
01F0
2178
2138
2238
2218
2218
7218
7430
9C70
07C0
0400
0400
0800
ENDCHAR
STARTCHAR percent
ENCODING 37
SWIDTH 789 0
DWIDTH 19 0
BBX 18 22 0 0
BITMAP
1E0100
330100
618200
618400
618C00
718800
331000
1E3000
006000
004000
008000
018000
010F00
023180
0470C0
0C60C0
0860C0
1060C0
2060C0
603180
401F00
800000
ENDCHAR
STARTCHAR ampersand
ENCODING 38
SWIDTH 773 0
DWIDTH 19 0
BBX 17 23 1 -2
BITMAP
0F0000
188000
308000
308000
218000
330000
370000
3E0000
3C0200
380E00
383E00
7CC600
760600
E60400
E30400
E38400
E1C800
F0F800
707080
783900
1FFF00
001E00
000600
ENDCHAR
STARTCHAR quotesingle
ENCODING 39
SWIDTH 174 0
DWIDTH 4 0
BBX 2 8 1 11
BITMAP
C0
C0
C0
C0
C0
40
40
80
ENDCHAR
STARTCHAR parenleft
ENCODING 40
SWIDTH 431 0
DWIDTH 10 0
BBX 10 34 0 -10
BITMAP
0400
0800
0800
1000
3000
3000
2000
6000
6000
6000
E000
E000
E000
E000
E000
E000
E000
E000
E000
E000
6000
6000
7000
7000
3000
3800
1800
1C00
0C00
0600
0300
0300
0080
0040
ENDCHAR
STARTCHAR parenright
ENCODING 41
SWIDTH 443 0
DWIDTH 11 0
BBX 10 23 0 -5
BITMAP
6000
3800
0C00
0E00
0700
0380
0380
0180
01C0
01C0
01C0
01C0
01C0
01C0
01C0
0180
0380
0300
0700
0600
0C00
3800
E000
ENDCHAR
STARTCHAR asterisk
ENCODING 42
SWIDTH 490 0
DWIDTH 12 0
BBX 9 10 1 12
BITMAP
0800
0C00
0C80
0D80
E500
FE00
0600
1B00
3180
0180
ENDCHAR
STARTCHAR plus
ENCODING 43
SWIDTH 440 0
DWIDTH 11 0
BBX 8 13 2 1
BITMAP
08
08
08
08
08
08
FF
08
08
08
08
08
08
ENDCHAR
STARTCHAR comma
ENCODING 44
SWIDTH 251 0
DWIDTH 6 0
BBX 4 8 1 -4
BITMAP
E0
F0
F0
70
30
20
40
C0
ENDCHAR
STARTCHAR hyphen
ENCODING 45
SWIDTH 436 0
DWIDTH 10 0
BBX 8 1 1 5
BITMAP
FF
ENDCHAR
STARTCHAR period
ENCODING 46
SWIDTH 238 0
DWIDTH 6 0
BBX 3 4 1 -1
BITMAP
E0
E0
E0
E0
ENDCHAR
STARTCHAR slash
ENCODING 47
SWIDTH 690 0
DWIDTH 17 0
BBX 16 22 0 0
BITMAP
0001
0001
0002
0004
000C
0008
0010
0020
0060
0040
0080
0180
0100
0200
0400
0C00
0800
1000
2000
2000
4000
8000
ENDCHAR
STARTCHAR zero
ENCODING 48
SWIDTH 723 0
DWIDTH 17 0
BBX 17 17 0 2
BITMAP
07E000
1C3800
300C00
700600
600700
E00300
E00380
E00380
E00380
E00380
E00380
600300
700300
300700
380E00
0E1C00
03F000
ENDCHAR
STARTCHAR one
ENCODING 49
SWIDTH 505 0
DWIDTH 12 0
BBX 12 22 0 -1
BITMAP
0400
0400
0600
0E00
1E00
1E00
6E00
8600
0700
0700
0700
0300
0300
0300
0380
0380
0380
0380
03C0
07F0
0E00
3000
ENDCHAR
STARTCHAR two
ENCODING 50
SWIDTH 534 0
DWIDTH 13 0
BBX 13 21 0 -2
BITMAP
0F80
3FC0
63E0
41E0
80E0
80E0
80E0
80C0
01C0
0180
0300
0200
0400
0800
3000
6000
3808
0F10
03F0
01E0
0040
ENDCHAR
STARTCHAR three
ENCODING 51
SWIDTH 511 0
DWIDTH 12 0
BBX 12 20 0 -2
BITMAP
4000
7FC0
7F80
6080
4100
8200
0400
0400
0F00
03C0
01E0
80E0
8070
8070
8070
8070
40E0
61E0
3FC0
0F80
ENDCHAR
STARTCHAR four
ENCODING 52
SWIDTH 712 0
DWIDTH 17 0
BBX 17 23 0 -2
BITMAP
002000
004000
00C000
00C000
01C000
02C000
04C000
08C000
10E000
206000
406000
E06000
3C7000
077100
01F900
007E00
003E00
003800
003800
003800
003C00
00FC00
000380
ENDCHAR
STARTCHAR five
ENCODING 53
SWIDTH 757 0
DWIDTH 18 0
BBX 18 22 1 -2
BITMAP
0060C0
00F080
00FF80
011F00
020F00
020200
040000
070000
07E000
01F000
007800
803C00
801C00
801C00
801C00
801C00
801C00
803800
803800
407000
20E000
1F8000
ENDCHAR
STARTCHAR six
ENCODING 54
SWIDTH 598 0
DWIDTH 14 0
BBX 14 19 0 0
BITMAP
07E0
1C10
3808
3804
7004
7000
F7E0
E830
F018
F01C
E00C
E00C
E00C
600C
600C
7018
3818
1C30
07C0
ENDCHAR
STARTCHAR seven
ENCODING 55
SWIDTH 507 0
DWIDTH 12 0
BBX 12 19 0 -1
BITMAP
0030
FFE0
FFE0
C3C0
8040
8080
8080
0100
0100
0300
0200
0600
0600
0E00
0C00
0C00
1C00
1C00
3C00
ENDCHAR
STARTCHAR eight
ENCODING 56
SWIDTH 476 0
DWIDTH 11 0
BBX 11 20 0 -1
BITMAP
1F00
3880
7080
7080
7080
7880
7D00
3E00
1F00
1F80
33C0
61C0
40E0
C060
C060
C060
C060
40C0
7080
1F00
ENDCHAR
STARTCHAR nine
ENCODING 57
SWIDTH 601 0
DWIDTH 14 0
BBX 14 18 0 0
BITMAP
1F80
30E0
6070
E070
E038
E038
E038
E038
E03C
7038
3878
1FB8
0038
0070
0070
40E0
61C0
1F00
ENDCHAR
STARTCHAR colon
ENCODING 58
SWIDTH 246 0
DWIDTH 6 0
BBX 3 12 2 -1
BITMAP
E0
E0
E0
E0
00
00
00
00
E0
E0
E0
C0
ENDCHAR
STARTCHAR semicolon
ENCODING 59
SWIDTH 266 0
DWIDTH 6 0
BBX 4 16 1 -5
BITMAP
60
F0
F0
60
00
00
00
00
00
60
F0
F0
70
20
40
80
ENDCHAR
STARTCHAR less
ENCODING 60
SWIDTH 522 0
DWIDTH 13 0
BBX 10 11 1 2
BITMAP
0040
0180
0200
0C00
1000
6000
E000
3800
0E00
0380
00C0
ENDCHAR
STARTCHAR equal
ENCODING 61
SWIDTH 655 0
DWIDTH 16 0
BBX 14 5 1 5
BITMAP
03FC
FC00
0000
0000
FFF0
ENDCHAR
STARTCHAR greater
ENCODING 62
SWIDTH 533 0
DWIDTH 13 0
BBX 10 12 1 1
BITMAP
C000
3000
0800
0600
0180
00C0
00C0
0180
0200
0C00
1000
2000
ENDCHAR
STARTCHAR question
ENCODING 63
SWIDTH 564 0
DWIDTH 14 0
BBX 12 22 1 -2
BITMAP
0F80
31E0
60E0
6070
E070
E070
F070
F8F0
F8E0
71C0
0380
0600
0C00
1000
2000
2000
2800
3800
0000
1C00
1C00
1C00
ENDCHAR
STARTCHAR at
ENCODING 64
SWIDTH 898 0
DWIDTH 22 0
BBX 19 24 1 -7
BITMAP
01FC00
070700
0C0180
1000C0
200040
200C60
43EC20
463C20
CC1C20
8C1C20
9C0C20
9C0C20
9C1C20
9C1C40
9C1C40
8E2C80
8FE700
438000
403000
203800
203800
101800
0C1000
03E000
ENDCHAR
STARTCHAR A
ENCODING 65
SWIDTH 784 0
DWIDTH 19 0
BBX 19 22 0 -2
BITMAP
004000
01E000
0FE000
01E000
017000
017000
023000
023800
023800
023800
071C00
04FC00
041C00
081E00
080E00
180E00
100700
F80700
1C0780
0007C0
0007E0
001800
ENDCHAR
STARTCHAR B
ENCODING 66
SWIDTH 685 0
DWIDTH 16 0
BBX 16 24 0 -3
BITMAP
01F0
FE38
1C1C
1C1C
0C1C
0C1C
0C18
0C30
0CC0
0FF8
0C1C
0C0E
0C06
0E07
0E07
0E07
0E07
0E07
0E06
0E0E
1F1C
1FF0
6000
8000
ENDCHAR
STARTCHAR C
ENCODING 67
SWIDTH 742 0
DWIDTH 18 0
BBX 17 22 0 -2
BITMAP
000100
000100
000100
03FF00
0E0F00
1C0300
380100
700080
700000
F00000
F00000
F00000
F00000
F00080
F00080
F00080
700080
780080
3C0100
1E0100
0F0600
03F800
ENDCHAR
STARTCHAR D
ENCODING 68
SWIDTH 726 0
DWIDTH 17 0
BBX 17 20 0 -4
BITMAP
43FC00
3E1E00
1C0700
0C0780
0C0380
0C0380
0C0380
0C0380
0C0380
0C0380
0C0380
0E0700
0E0600
0F1C00
0FE000
1E0000
180000
200000
400000
800000
ENDCHAR
STARTCHAR E
ENCODING 69
SWIDTH 557 0
DWIDTH 13 0
BBX 13 22 0 -3
BITMAP
00F0
FF10
3810
3810
3800
3800
1800
1880
1880
1F80
1C80
1C80
1C80
1C00
1C00
1C00
0C08
0C08
0C08
0C18
FFF8
0070
ENDCHAR
STARTCHAR F
ENCODING 70
SWIDTH 533 0
DWIDTH 13 0
BBX 13 21 0 -1
BITMAP
0038
01F8
FE18
7C10
3C10
1C10
1C10
1C80
1C80
1C80
1F80
0C80
0C80
0C80
0C00
0C00
0C00
0C00
0C00
1E00
FF00
ENDCHAR
STARTCHAR G
ENCODING 71
SWIDTH 750 0
DWIDTH 18 0
BBX 18 18 0 -1
BITMAP
000040
000080
03F080
0E0F00
1C0700
380200
700200
700200
F00000
E00000
E00380
E07F00
F00700
F00700
700700
380F00
1C1900
0FE000
ENDCHAR
STARTCHAR H
ENCODING 72
SWIDTH 743 0
DWIDTH 18 0
BBX 18 25 0 -4
BITMAP
E00000
3F8000
1C4000
1C03C0
1C7F00
1C0E00
1C0E00
1C0600
1C0600
1C0600
1C0600
1C0E00
1FFE00
1C0600
1C0600
1C0600
1C0600
1C0600
1C0600
1C0600
1C0600
1C3F80
1C0000
FE0000
800000
ENDCHAR
STARTCHAR I
ENCODING 73
SWIDTH 438 0
DWIDTH 11 0
BBX 14 25 -2 -5
BITMAP
7FFC
0FC0
0780
0700
0700
0700
0700
0700
0700
0700
0600
0600
0600
0600
0600
0600
0600
0600
0600
0600
0600
0600
0FC0
3000
C000
ENDCHAR
STARTCHAR J
ENCODING 74
SWIDTH 628 0
DWIDTH 15 0
BBX 17 28 0 -6
BITMAP
000180
001E00
03F800
00F800
007800
007800
003800
003800
003800
003800
003800
003000
003000
003000
003000
003000
003000
003000
003000
007000
006000
386000
7C6000
7CC000
FCC000
418000
430000
3C0000
ENDCHAR
STARTCHAR K
ENCODING 75
SWIDTH 866 0
DWIDTH 21 0
BBX 21 21 1 -2
BITMAP
060000
FC3000
381F80
381800
382000
384000
388000
388000
398000
1FC000
1DC000
19E000
18E020
187010
187808
183C08
181F18
180FF0
1C03E0
7E0000
030000
ENDCHAR
STARTCHAR L
ENCODING 76
SWIDTH 660 0
DWIDTH 16 0
BBX 15 18 0 0
BITMAP
C000
3FE0
0F00
0F00
0E00
0E00
0E00
0E00
0E00
0E00
0E08
0E08
0E04
0E04
0E06
0E0E
3FFE
6000
ENDCHAR
STARTCHAR M
ENCODING 77
SWIDTH 1089 0
DWIDTH 26 0
BBX 27 19 0 -2
BITMAP
00000F80
00000C00
08001800
07C01800
03E03800
01E05800
01705C00
01789C00
013C9C00
011D0C00
011F0C00
010E0E00
010E0E00
02040600
02000700
E2000780
F4000FE0
FC003000
70000000
ENDCHAR
STARTCHAR N
ENCODING 78
SWIDTH 799 0
DWIDTH 19 0
BBX 20 23 0 -5
BITMAP
000010
FE07F0
1F0180
0F8080
0BC080
0BE080
09F080
08F880
087C80
083E80
083F80
081F80
080F80
080780
080380
080180
080100
080000
080000
080000
1C0000
7E0000
030000
ENDCHAR
STARTCHAR O
ENCODING 79
SWIDTH 747 0
DWIDTH 18 0
BBX 18 18 0 1
BITMAP
07F000
0C3C00
380E00
300700
700780
600780
E00380
E003C0
E003C0
E003C0
E003C0
E00380
700380
700380
380700
380600
0E1C00
03F000
ENDCHAR
STARTCHAR P
ENCODING 80
SWIDTH 623 0
DWIDTH 15 0
BBX 15 21 0 -3
BITMAP
00F8
FF1E
0F0E
070E
0606
0606
060E
060E
061C
07F0
0600
0600
0600
0600
0600
0700
0F00
0F00
0F00
1F80
6070
ENDCHAR
STARTCHAR Q
ENCODING 81
SWIDTH 804 0
DWIDTH 19 0
BBX 27 30 0 -11
BITMAP
03F80000
0C1E0000
18070000
30038000
7003C000
6001C000
6001E000
E000E000
E000E000
E000E000
E000E000
E000E000
E000E000
F03CC000
7067C000
78438000
38438000
1C438000
0F47C000
03F9C000
0001C000
0000E000
0000E000
0000E020
0000F020
00007020
00007820
00007C40
00003FC0
00000F00
ENDCHAR
STARTCHAR R
ENCODING 82
SWIDTH 869 0
DWIDTH 21 0
BBX 21 18 0 -1
BITMAP
03F000
FE3800
3C1C00
1C1C00
1C1C00
1C1C00
1C1C00
0C3800
0C7800
0FE000
0CE000
0C7000
0C7008
0C3808
0C3C08
0E1F08
FF0FF0
0083E0
ENDCHAR
STARTCHAR S
ENCODING 83
SWIDTH 517 0
DWIDTH 12 0
BBX 13 22 0 -3
BITMAP
0010
0790
0C70
1830
1820
1C20
1C00
1E00
0F00
0780
03C0
03C0
01E0
00F0
8070
8070
C078
4038
6030
6070
5860
87C0
ENDCHAR
STARTCHAR T
ENCODING 84
SWIDTH 659 0
DWIDTH 16 0
BBX 16 24 1 -3
BITMAP
E007
FFFF
C0C7
80C3
80C2
80C2
40C0
41C0
41C0
01C0
01C0
01C0
01C0
01C0
01C0
01C0
01C0
01C0
01C0
01C0
03E0
03FC
0600
1800
ENDCHAR
STARTCHAR U
ENCODING 85
SWIDTH 690 0
DWIDTH 17 0
BBX 18 17 0 1
BITMAP
01C000
0F0000
FE0000
3E7FC0
1E0E00
1C0600
1C0200
1C0200
1C0200
1C0200
1C0200
1E0400
0E0400
0E0400
070400
078800
01F000
ENDCHAR
STARTCHAR V
ENCODING 86
SWIDTH 798 0
DWIDTH 19 0
BBX 21 18 0 0
BITMAP
01C000
FF0008
1F0030
0700E0
078FC0
038080
038180
01C100
01E100
00E100
00F200
007200
007C00
003C00
003800
003800
001800
001000
ENDCHAR
STARTCHAR W
ENCODING 87
SWIDTH 1120 0
DWIDTH 27 0
BBX 31 20 -1 -2
BITMAP
00000380
000000FE
00000070
01000060
06000040
0E0000C0
FE000080
0E060080
06070100
070F0100
07138200
03938200
03A1C400
03E1E400
01C0F800
01C0F800
01807000
00807000
00006000
00002000
ENDCHAR
STARTCHAR X
ENCODING 88
SWIDTH 868 0
DWIDTH 21 0
BBX 21 19 0 -1
BITMAP
00E000
FFC000
0FC300
03C0E0
01C090
00E100
00F200
007200
003C00
003C00
003C00
004E00
008E00
010700
030380
060380
7E01C0
071FF0
018008
ENDCHAR
STARTCHAR Y
ENCODING 89
SWIDTH 796 0
DWIDTH 19 0
BBX 21 23 0 -3
BITMAP
070000
FC0300
3C01F8
1E0080
0E0100
070200
038400
01C800
01F800
00F000
007000
007000
007000
007000
007000
007000
007000
007000
007000
007000
00F000
07F800
000C00
ENDCHAR
STARTCHAR Z
ENCODING 90
SWIDTH 627 0
DWIDTH 15 0
BBX 15 20 1 -3
BITMAP
C040
FFC0
C3C0
8380
8380
8780
8700
0700
0F00
0E00
0E08
0C08
1C08
1C08
180C
380C
381C
30FE
7F00
6000
ENDCHAR
STARTCHAR bracketleft
ENCODING 91
SWIDTH 344 0
DWIDTH 8 0
BBX 8 25 0 -5
BITMAP
3C
33
30
70
70
60
60
60
60
60
60
60
E0
E0
E0
E0
E0
E0
E0
E0
E0
E0
E0
F0
7E
ENDCHAR
STARTCHAR backslash
ENCODING 92
SWIDTH 347 0
DWIDTH 8 0
BBX 8 26 0 -3
BITMAP
80
80
40
40
40
40
20
20
20
10
10
10
10
08
08
08
04
04
04
04
02
02
02
01
01
01
ENDCHAR
STARTCHAR bracketright
ENCODING 93
SWIDTH 334 0
DWIDTH 8 0
BBX 8 23 0 -6
BITMAP
04
7C
0C
0C
0C
0E
0E
0E
0E
0E
0E
0E
0E
0E
0E
0E
0F
0F
0F
0E
18
60
80
ENDCHAR
STARTCHAR asciicircum
ENCODING 94
SWIDTH 658 0
DWIDTH 16 0
BBX 14 6 1 13
BITMAP
0200
0700
0F80
1BC0
30F0
C01C
ENDCHAR
STARTCHAR underscore
ENCODING 95
SWIDTH 678 0
DWIDTH 16 0
BBX 14 2 1 -8
BITMAP
0FFC
F000
ENDCHAR
STARTCHAR grave
ENCODING 96
SWIDTH 278 0
DWIDTH 7 0
BBX 4 5 1 18
BITMAP
C0
C0
60
30
10
ENDCHAR
STARTCHAR a
ENCODING 97
SWIDTH 527 0
DWIDTH 13 0
BBX 13 17 0 -2
BITMAP
1E00
2300
4380
6180
7180
7980
31C0
01C0
3FC0
61C0
C1C0
C1C0
E3E0
FEE8
7CE8
0078
0070
ENDCHAR
STARTCHAR b
ENCODING 98
SWIDTH 582 0
DWIDTH 14 0
BBX 15 27 -2 0
BITMAP
0800
0800
0800
3800
F800
1800
1800
1C00
1C00
1C00
0C00
0C00
0C00
0C00
0C00
0CF8
0D1C
0E0E
0C0E
0C0E
0C0E
0E0E
0E0E
0E0C
0F1C
1FF0
7000
ENDCHAR
STARTCHAR c
ENCODING 99
SWIDTH 437 0
DWIDTH 11 0
BBX 10 13 0 2
BITMAP
0F00
3780
6380
4380
C380
C000
C080
C040
E040
E040
7080
3F80
1F00
ENDCHAR
STARTCHAR d
ENCODING 100
SWIDTH 523 0
DWIDTH 13 0
BBX 13 23 1 1
BITMAP
0040
01C0
07C0
00C0
00C0
00C0
00C0
00C0
00C0
00C0
00C0
00C0
00C0
00C0
3FC0
70C0
E0C0
E0C0
E0C0
E0C0
E0C0
71E0
3FF8
ENDCHAR
STARTCHAR e
ENCODING 101
SWIDTH 434 0
DWIDTH 10 0
BBX 10 13 0 1
BITMAP
0F00
3180
71C0
60C0
E1C0
E180
E380
FE80
E040
E040
7080
3880
1F00
ENDCHAR
STARTCHAR f
ENCODING 102
SWIDTH 299 0
DWIDTH 7 0
BBX 13 31 -2 -4
BITMAP
00E0
0110
0218
0218
0438
04F8
04F0
04E0
0C00
0C00
0C00
0FC0
FC00
0C00
0C00
0C00
0C00
0C00
0C00
0C00
0C00
0C00
0C00
0E00
0E00
0E00
0E00
0E00
0E00
0FC0
3000
ENDCHAR
STARTCHAR g
ENCODING 103
SWIDTH 567 0
DWIDTH 14 0
BBX 14 23 0 -9
BITMAP
003C
009C
1F9C
38CC
70E0
7060
7060
7060
70E0
38C0
1F80
1000
3000
0F80
18F0
7038
6038
E018
E018
E018
F030
7860
3F80
ENDCHAR
STARTCHAR h
ENCODING 104
SWIDTH 566 0
DWIDTH 14 0
BBX 15 26 -1 0
BITMAP
0200
0600
1C00
7C00
0C00
0C00
0C00
0C00
0C00
0C00
0C00
0C00
0C00
0C00
0DE0
0E70
0C30
1C38
1C38
1C38
1838
1838
1838
3838
FC7E
0680
ENDCHAR
STARTCHAR i
ENCODING 105
SWIDTH 301 0
DWIDTH 7 0
BBX 7 17 0 2
BITMAP
38
38
38
00
08
F8
38
38
38
38
38
30
30
30
30
38
FE
ENDCHAR
STARTCHAR j
ENCODING 106
SWIDTH 367 0
DWIDTH 9 0
BBX 11 28 -3 -12
BITMAP
0380
0380
0380
0000
0040
1FC0
03C0
01C0
01E0
00E0
00E0
00E0
0060
0060
0060
0060
0060
0060
0060
0060
3860
7840
F840
E0C0
8080
8180
4300
3E00
ENDCHAR
STARTCHAR k
ENCODING 107
SWIDTH 567 0
DWIDTH 14 0
BBX 15 27 -1 -3
BITMAP
0400
3C00
FC00
1C00
0C00
0C00
0C00
0C00
0C00
0C00
0C00
0C80
0C78
0C40
0C80
0D00
0F00
0F80
0D88
0DC4
0CC2
0CE6
0C7C
0E3C
0E00
1E00
7FC0
ENDCHAR
STARTCHAR l
ENCODING 108
SWIDTH 354 0
DWIDTH 9 0
BBX 10 22 -1 1
BITMAP
0400
0400
0C00
1C00
7C00
DC00
0C00
0E00
0E00
0E00
0E00
0E00
0E00
0E00
0600
0600
0600
0600
0600
0600
0700
1FC0
ENDCHAR
STARTCHAR m
ENCODING 109
SWIDTH 708 0
DWIDTH 17 0
BBX 17 10 0 2
BITMAP
180000
FB9E00
3DE600
18C600
18C600
18C600
19C600
1BEE00
7C1E00
020380
ENDCHAR
STARTCHAR n
ENCODING 110
SWIDTH 584 0
DWIDTH 14 0
BBX 13 16 1 0
BITMAP
1000
1000
31E0
73F0
B470
3430
3830
1830
1830
1830
1830
1830
1870
1DF0
7E30
0008
ENDCHAR
STARTCHAR o
ENCODING 111
SWIDTH 503 0
DWIDTH 12 0
BBX 11 11 1 2
BITMAP
1F00
31C0
60E0
E060
E060
E060
E060
E060
7060
38C0
1F00
ENDCHAR
STARTCHAR p
ENCODING 112
SWIDTH 509 0
DWIDTH 12 0
BBX 12 23 0 -10
BITMAP
0800
1800
39C0
7EE0
1870
1870
1870
1870
1870
1860
1CC0
1F80
1800
1800
1800
1800
1800
1800
1800
1C00
3C00
7E00
8100
ENDCHAR
STARTCHAR q
ENCODING 113
SWIDTH 505 0
DWIDTH 12 0
BBX 12 23 1 -10
BITMAP
01E0
3D80
6380
E180
C180
C180
E180
F180
3F80
0180
0180
0180
0180
0180
0180
0180
0180
0180
0180
0180
0F80
00E0
0030
ENDCHAR
STARTCHAR r
ENCODING 114
SWIDTH 414 0
DWIDTH 10 0
BBX 11 16 0 0
BITMAP
01C0
1220
3460
F4E0
38C0
3800
3800
1800
1800
1800
1800
1C00
1C00
1C00
1F00
6000
ENDCHAR
STARTCHAR s
ENCODING 115
SWIDTH 482 0
DWIDTH 12 0
BBX 12 19 0 -3
BITMAP
0040
07C0
0CC0
1840
1840
1C40
0C00
0E00
0700
0380
01C0
10E0
10E0
3070
2070
6060
B060
18C0
0780
ENDCHAR
STARTCHAR t
ENCODING 116
SWIDTH 434 0
DWIDTH 10 0
BBX 10 19 0 0
BITMAP
0200
0200
0600
0600
0600
0F80
7E00
9C00
1800
1800
3800
3800
3800
3800
38C0
38C0
1840
1C40
0F80
ENDCHAR
STARTCHAR u
ENCODING 117
SWIDTH 744 0
DWIDTH 18 0
BBX 17 13 0 0
BITMAP
080800
18FC00
381C00
F81C00
180C00
181C00
1C1C00
1C1C00
1C1C00
0E2F80
0E2400
07C000
038000
ENDCHAR
STARTCHAR v
ENCODING 118
SWIDTH 600 0
DWIDTH 14 0
BBX 14 15 0 -1
BITMAP
0600
1C00
7C00
9C00
1C7C
0E10
0E10
0720
0720
0320
03C0
01C0
01C0
0080
0080
ENDCHAR
STARTCHAR w
ENCODING 119
SWIDTH 745 0
DWIDTH 18 0
BBX 18 12 0 -1
BITMAP
0401C0
182700
F86200
3C7200
1CF200
1CBA00
1F3C00
0F1C00
0F1C00
060800
060000
040000
ENDCHAR
STARTCHAR x
ENCODING 120
SWIDTH 548 0
DWIDTH 13 0
BBX 14 14 0 1
BITMAP
0300
FE00
3C00
1EFC
0E60
0EC0
0780
0300
0380
0380
0580
19C0
7DF8
0300
ENDCHAR
STARTCHAR y
ENCODING 121
SWIDTH 659 0
DWIDTH 16 0
BBX 15 24 1 -11
BITMAP
0600
0C00
38FE
F03C
701C
301C
381C
381C
3818
1C38
1E78
0FD8
0798
0018
0010
0010
0030
0030
1E20
1E20
2E40
20C0
3180
1E00
ENDCHAR
STARTCHAR z
ENCODING 122
SWIDTH 460 0
DWIDTH 11 0
BBX 11 14 0 0
BITMAP
6000
7FC0
4180
4380
8300
8700
0600
0E00
1C00
1C20
3820
7860
7FE0
8000
ENDCHAR
STARTCHAR braceleft
ENCODING 123
SWIDTH 460 0
DWIDTH 11 0
BBX 10 30 0 -7
BITMAP
0380
0640
0C00
0C00
0C00
0C00
0E00
0E00
0E00
0E00
0E00
0E00
1C00
3800
C000
3000
1800
0C00
0C00
0E00
0E00
0E00
0E00
0E00
0E00
0E00
0E40
0E40
07C0
0380
ENDCHAR
STARTCHAR bar
ENCODING 124
SWIDTH 368 0
DWIDTH 9 0
BBX 2 26 4 -5
BITMAP
80
80
80
80
80
80
80
80
80
80
80
80
80
80
80
80
80
80
80
80
80
80
80
80
40
80
ENDCHAR
STARTCHAR braceright
ENCODING 125
SWIDTH 476 0
DWIDTH 11 0
BBX 11 25 0 -6
BITMAP
3C00
4F00
8700
0700
0700
0700
0700
0300
0300
0180
0060
00C0
00C0
00C0
00C0
00C0
00E0
0060
0060
0060
0060
0060
0040
0180
0700
ENDCHAR
STARTCHAR asciitilde
ENCODING 126
SWIDTH 733 0
DWIDTH 18 0
BBX 15 5 1 4
BITMAP
0002
1E02
6786
81FC
8078
ENDCHAR
STARTCHAR nonbreakingspace
ENCODING 160
SWIDTH 270 0
DWIDTH 6 0
BBX 1 1 0 0
BITMAP
00
ENDCHAR
STARTCHAR exclamdown
ENCODING 161
SWIDTH 247 0
DWIDTH 6 0
BBX 4 26 1 -3
BITMAP
E0
E0
E0
00
00
00
00
40
40
60
60
60
60
60
60
60
60
60
60
E0
E0
F0
F0
E0
E0
60
ENDCHAR
STARTCHAR cent
ENCODING 162
SWIDTH 799 0
DWIDTH 19 0
BBX 11 21 4 -5
BITMAP
1000
1000
1000
0F80
18C0
3860
68E0
64E0
E4E0
E400
E400
E200
E220
7220
7A40
3FC0
1F00
0100
0100
0080
0080
ENDCHAR
STARTCHAR sterling
ENCODING 163
SWIDTH 799 0
DWIDTH 19 0
BBX 14 22 3 -3
BITMAP
07C0
0C60
1870
1870
38F0
38E0
38E0
3800
3C00
1C80
1F00
FE00
0E00
0F00
0700
0700
0708
0304
3F04
4788
4478
7800
ENDCHAR
STARTCHAR currency
ENCODING 164
SWIDTH 732 0
DWIDTH 18 0
BBX 14 18 2 0
BITMAP
0040
0060
80C0
8FC0
7060
4020
4010
8010
8010
8010
8020
C020
60C0
3F20
2018
6004
4000
8000
ENDCHAR
STARTCHAR yen
ENCODING 165
SWIDTH 799 0
DWIDTH 19 0
BBX 17 25 1 -4
BITMAP
018000
FE0080
3E0300
1E3C00
0F0400
070800
078800
039000
03D000
01E000
01E000
01E000
00E000
0FFF80
00E000
00FC00
0FE000
00E000
00E000
00E000
00E000
01E000
01FC00
0F0000
080000
ENDCHAR
STARTCHAR brokenbar
ENCODING 166
SWIDTH 341 0
DWIDTH 8 0
BBX 1 28 4 -6
BITMAP
80
80
80
80
80
80
80
80
80
80
00
00
00
80
80
80
80
80
80
80
80
80
80
80
80
80
80
80
ENDCHAR
STARTCHAR section
ENCODING 167
SWIDTH 546 0
DWIDTH 13 0
BBX 11 27 1 -7
BITMAP
0F00
30C0
30C0
60E0
71E0
70C0
7800
3C00
3E00
6F80
C7C0
C1C0
C0E0
E060
7060
7C40
3E80
0F00
0380
01C0
00C0
0040
0040
1840
3C40
1C80
1F00
ENDCHAR
STARTCHAR dieresis
ENCODING 168
SWIDTH 393 0
DWIDTH 9 0
BBX 6 3 2 16
BITMAP
E0
EC
EC
ENDCHAR
STARTCHAR copyright
ENCODING 169
SWIDTH 1023 0
DWIDTH 25 0
BBX 22 22 1 -4
BITMAP
00FE00
070380
080060
100830
200810
60F808
431808
430804
860804
860004
860404
870404
830404
838804
80F008
400008
400010
600010
300020
1800C0
0E0380
01FC00
ENDCHAR
STARTCHAR ordfeminine
ENCODING 170
SWIDTH 558 0
DWIDTH 13 0
BBX 11 12 1 8
BITMAP
7800
CC00
C600
C600
C600
3E00
6600
C620
C620
C620
FB40
79C0
ENDCHAR
STARTCHAR guillemotleft
ENCODING 171
SWIDTH 608 0
DWIDTH 15 0
BBX 12 21 1 -6
BITMAP
0010
0010
0110
0120
0320
0220
0660
0C40
38C0
79C0
F1E0
78E0
3C70
1C30
0E30
0610
0310
0110
0190
0080
0040
ENDCHAR
STARTCHAR logicalnot
ENCODING 172
SWIDTH 616 0
DWIDTH 15 0
BBX 12 5 1 6
BITMAP
FFF0
0010
0010
0010
0010
ENDCHAR
STARTCHAR uni00AD
ENCODING 173
SWIDTH 436 0
DWIDTH 10 0
BBX 8 1 1 5
BITMAP
FF
ENDCHAR
STARTCHAR registered
ENCODING 174
SWIDTH 1048 0
DWIDTH 25 0
BBX 23 22 1 -5
BITMAP
00FE00
0701C0
080020
17FC10
238E08
418E04
418604
818E02
818C02
819C02
81F002
81B082
81B842
819842
C3CC84
4FF784
400004
200008
100010
0C0060
0701C0
00FE00
ENDCHAR
STARTCHAR macron
ENCODING 175
SWIDTH 382 0
DWIDTH 9 0
BBX 7 1 1 19
BITMAP
FE
ENDCHAR
STARTCHAR degree
ENCODING 176
SWIDTH 346 0
DWIDTH 8 0
BBX 6 6 1 17
BITMAP
78
CC
84
84
CC
78
ENDCHAR
STARTCHAR plusminus
ENCODING 177
SWIDTH 580 0
DWIDTH 14 0
BBX 12 8 1 3
BITMAP
0200
0200
0200
7FF0
0200
0200
0200
FFC0
ENDCHAR
STARTCHAR twosuperior
ENCODING 178
SWIDTH 365 0
DWIDTH 9 0
BBX 8 13 1 8
BITMAP
3C
4E
86
06
06
0C
18
30
C0
73
1C
18
10
ENDCHAR
STARTCHAR threesuperior
ENCODING 179
SWIDTH 371 0
DWIDTH 9 0
BBX 8 12 0 9
BITMAP
7C
78
48
90
1E
07
03
83
83
83
46
3C
ENDCHAR
STARTCHAR acute
ENCODING 180
SWIDTH 234 0
DWIDTH 6 0
BBX 3 5 1 18
BITMAP
20
60
40
C0
80
ENDCHAR
STARTCHAR mu
ENCODING 181
SWIDTH 634 0
DWIDTH 15 0
BBX 14 20 1 -7
BITMAP
C000
C1C0
C1C0
C0C0
C0C0
C0C0
C0C8
E0C4
E0E4
D164
CE7C
C038
C000
E000
E000
E000
E000
E000
E000
E000
ENDCHAR
STARTCHAR paragraph
ENCODING 182
SWIDTH 707 0
DWIDTH 17 0
BBX 17 29 0 -9
BITMAP
000100
000E00
0FFC00
3F1800
7E1800
FE1800
FE1800
FE1800
FE1800
FE1800
7E1800
3E1800
0E1800
061800
061800
061800
061800
061800
061800
071800
031800
031800
031C00
031E00
071F80
070000
070000
1E0000
600000
ENDCHAR
STARTCHAR periodcentered
ENCODING 183
SWIDTH 238 0
DWIDTH 6 0
BBX 3 4 1 7
BITMAP
E0
E0
E0
E0
ENDCHAR
STARTCHAR cedilla
ENCODING 184
SWIDTH 332 0
DWIDTH 8 0
BBX 6 8 1 -6
BITMAP
30
20
30
38
0C
8C
4C
38
ENDCHAR
STARTCHAR onesuperior
ENCODING 185
SWIDTH 336 0
DWIDTH 8 0
BBX 8 11 0 10
BITMAP
04
04
1C
2C
4C
0C
0C
0C
1C
FC
07
ENDCHAR
STARTCHAR ordmasculine
ENCODING 186
SWIDTH 503 0
DWIDTH 12 0
BBX 11 11 1 7
BITMAP
1F00
6380
41C0
80C0
80C0
8060
C060
C040
6040
3080
1F00
ENDCHAR
STARTCHAR guillemotright
ENCODING 187
SWIDTH 778 0
DWIDTH 19 0
BBX 17 22 1 -6
BITMAP
020000
020000
010000
818000
40C000
606000
703000
381800
1F0E00
07E780
038E00
031C00
063800
0C7000
186000
10C000
308000
218000
410000
410000
010000
010000
ENDCHAR
STARTCHAR onequarter
ENCODING 188
SWIDTH 876 0
DWIDTH 21 0
BBX 20 22 0 0
BITMAP
000040
040080
040100
1C0100
2C0200
4C0400
0C0C00
0C0800
0C1100
1C2100
FC6300
064300
018700
018B20
010B20
021360
0411E0
043FE0
080180
100180
3001C0
2007F0
ENDCHAR
STARTCHAR onehalf
ENCODING 189
SWIDTH 762 0
DWIDTH 18 0
BBX 18 23 0 -1
BITMAP
000040
040080
040100
1C0100
2C0200
4C0400
0C0C00
0C0800
0C1000
1C2000
FC6780
065980
0191C0
0181C0
010180
020180
040300
040C00
083800
100CC0
300700
200300
000200
ENDCHAR
STARTCHAR threequarters
ENCODING 190
SWIDTH 922 0
DWIDTH 22 0
BBX 21 22 0 0
BITMAP
000020
7C0040
780040
480080
900100
1E0300
070200
030400
830C80
830880
831180
462180
3C6380
004590
008590
0108D0
0108F0
021FF0
0400C0
0C00C0
0800E0
1003F8
ENDCHAR
STARTCHAR questiondown
ENCODING 191
SWIDTH 571 0
DWIDTH 14 0
BBX 13 22 0 -3
BITMAP
0300
0780
0780
0300
0000
0600
0200
0100
0200
0200
0C00
1C00
38F0
71F8
71F8
F0F8
F038
F018
F018
7810
3C20
1FC0
ENDCHAR
STARTCHAR Agrave
ENCODING 192
SWIDTH 784 0
DWIDTH 19 0
BBX 19 27 0 -2
BITMAP
080000
1C0000
060000
060000
020000
014000
01E000
0FE000
01E000
017000
017000
023000
023800
023800
023800
071C00
04FC00
041C00
081E00
080E00
180E00
100700
F80700
1C0780
0007C0
0007E0
001800
ENDCHAR
STARTCHAR Aacute
ENCODING 193
SWIDTH 784 0
DWIDTH 19 0
BBX 19 28 0 -2
BITMAP
004000
004000
00C000
008000
010000
000000
004000
01E000
0FE000
01E000
017000
017000
023000
023800
023800
023800
071C00
04FC00
041C00
081E00
080E00
180E00
100700
F80700
1C0780
0007C0
0007E0
001800
ENDCHAR
STARTCHAR Acircumflex
ENCODING 194
SWIDTH 784 0
DWIDTH 19 0
BBX 19 28 0 -2
BITMAP
004000
00C000
016000
013800
020C00
040000
004000
01E000
0FE000
01E000
017000
017000
023000
023800
023800
023800
071C00
04FC00
041C00
081E00
080E00
180E00
100700
F80700
1C0780
0007C0
0007E0
001800
ENDCHAR
STARTCHAR Atilde
ENCODING 195
SWIDTH 784 0
DWIDTH 19 0
BBX 19 27 0 -2
BITMAP
070000
09D000
08F000
007000
000000
004000
01E000
0FE000
01E000
017000
017000
023000
023800
023800
023800
071C00
04FC00
041C00
081E00
080E00
180E00
100700
F80700
1C0780
0007C0
0007E0
001800
ENDCHAR
STARTCHAR Adieresis
ENCODING 196
SWIDTH 784 0
DWIDTH 19 0
BBX 19 26 0 -2
BITMAP
033000
077000
037000
000000
004000
01E000
0FE000
01E000
017000
017000
023000
023800
023800
023800
071C00
04FC00
041C00
081E00
080E00
180E00
100700
F80700
1C0780
0007C0
0007E0
001800
ENDCHAR
STARTCHAR Aring
ENCODING 197
SWIDTH 784 0
DWIDTH 19 0
BBX 19 28 0 -2
BITMAP
01E000
031000
021000
031000
03F000
01E000
004000
01E000
0FE000
01E000
017000
017000
023000
023800
023800
023800
071C00
04FC00
041C00
081E00
080E00
180E00
100700
F80700
1C0780
0007C0
0007E0
001800
ENDCHAR
STARTCHAR AE
ENCODING 198
SWIDTH 1172 0
DWIDTH 28 0
BBX 28 24 0 -4
BITMAP
00000300
00001F00
0001F300
007F8200
00078200
00078200
00098000
00098000
00098400
0011C400
0011C400
0021FC00
0021C220
0021C220
007FC220
0041E030
0081E030
0081E070
0101E1F0
0301FF00
0201F000
0601C000
1E030000
FF840000
ENDCHAR
STARTCHAR Ccedilla
ENCODING 199
SWIDTH 742 0
DWIDTH 18 0
BBX 17 30 0 -10
BITMAP
000100
000100
000100
03FF00
0E0F00
1C0300
380100
700080
700000
F00000
F00000
F00000
F00000
F00080
F00080
F00080
700080
780080
3C0100
1E0100
0F0600
03F800
004000
004000
007000
007000
001800
011800
013000
00E000
ENDCHAR
STARTCHAR Egrave
ENCODING 200
SWIDTH 557 0
DWIDTH 13 0
BBX 13 28 0 -3
BITMAP
2000
3000
1800
0800
0400
0000
00F0
FF10
3810
3810
3800
3800
1800
1880
1880
1F80
1C80
1C80
1C80
1C00
1C00
1C00
0C08
0C08
0C08
0C18
FFF8
0070
ENDCHAR
STARTCHAR Eacute
ENCODING 201
SWIDTH 557 0
DWIDTH 13 0
BBX 13 28 0 -3
BITMAP
0080
0180
0100
0300
0200
0000
00F0
FF10
3810
3810
3800
3800
1800
1880
1880
1F80
1C80
1C80
1C80
1C00
1C00
1C00
0C08
0C08
0C08
0C18
FFF8
0070
ENDCHAR
STARTCHAR Ecircumflex
ENCODING 202
SWIDTH 557 0
DWIDTH 13 0
BBX 13 29 0 -3
BITMAP
0200
0300
0580
08C0
1060
2000
0000
00F0
FF10
3810
3810
3800
3800
1800
1880
1880
1F80
1C80
1C80
1C80
1C00
1C00
1C00
0C08
0C08
0C08
0C18
FFF8
0070
ENDCHAR
STARTCHAR Edieresis
ENCODING 203
SWIDTH 557 0
DWIDTH 13 0
BBX 13 26 0 -3
BITMAP
1DC0
1DC0
1980
0000
00F0
FF10
3810
3810
3800
3800
1800
1880
1880
1F80
1C80
1C80
1C80
1C00
1C00
1C00
0C08
0C08
0C08
0C18
FFF8
0070
ENDCHAR
STARTCHAR Igrave
ENCODING 204
SWIDTH 438 0
DWIDTH 11 0
BBX 14 32 -2 -5
BITMAP
0C00
0C00
0600
0200
0100
0000
0000
7FFC
0FC0
0780
0700
0700
0700
0700
0700
0700
0700
0600
0600
0600
0600
0600
0600
0600
0600
0600
0600
0600
0600
0FC0
3000
C000
ENDCHAR
STARTCHAR Iacute
ENCODING 205
SWIDTH 438 0
DWIDTH 11 0
BBX 14 31 -2 -5
BITMAP
0020
0040
00C0
0080
0080
0000
7FFC
0FC0
0780
0700
0700
0700
0700
0700
0700
0700
0600
0600
0600
0600
0600
0600
0600
0600
0600
0600
0600
0600
0FC0
3000
C000
ENDCHAR
STARTCHAR Icircumflex
ENCODING 206
SWIDTH 438 0
DWIDTH 11 0
BBX 14 32 -2 -5
BITMAP
0100
0180
02C0
0470
0818
1000
0000
7FFC
0FC0
0780
0700
0700
0700
0700
0700
0700
0700
0600
0600
0600
0600
0600
0600
0600
0600
0600
0600
0600
0600
0FC0
3000
C000
ENDCHAR
STARTCHAR Idieresis
ENCODING 207
SWIDTH 438 0
DWIDTH 11 0
BBX 14 30 -2 -5
BITMAP
0EE0
0EE0
0CC0
0000
0000
7FFC
0FC0
0780
0700
0700
0700
0700
0700
0700
0700
0600
0600
0600
0600
0600
0600
0600
0600
0600
0600
0600
0600
0FC0
3000
C000
ENDCHAR
STARTCHAR Eth
ENCODING 208
SWIDTH 730 0
DWIDTH 18 0
BBX 18 20 0 -5
BITMAP
47F800
3E3E00
0E0F00
0E0780
0E0780
0E07C0
0E03C0
0E03C0
7F83C0
0E03C0
0E07C0
0E0780
0E0780
0E0F00
0E0E00
1E3800
1FC000
380000
400000
800000
ENDCHAR
STARTCHAR Ntilde
ENCODING 209
SWIDTH 799 0
DWIDTH 19 0
BBX 20 28 0 -5
BITMAP
006000
01B900
011E00
000E00
000000
000010
FE07F0
1F0180
0F8080
0BC080
0BE080
09F080
08F880
087C80
083E80
083F80
081F80
080F80
080780
080380
080180
080100
080000
080000
080000
1C0000
7E0000
030000
ENDCHAR
STARTCHAR Ograve
ENCODING 210
SWIDTH 747 0
DWIDTH 18 0
BBX 18 25 0 1
BITMAP
0C0000
0C0000
060000
030000
010000
000000
000000
07F000
0C3C00
380E00
300700
700780
600780
E00380
E003C0
E003C0
E003C0
E003C0
E00380
700380
700380
380700
380600
0E1C00
03F000
ENDCHAR
STARTCHAR Oacute
ENCODING 211
SWIDTH 747 0
DWIDTH 18 0
BBX 18 24 0 1
BITMAP
004000
004000
00C000
008000
010000
000000
07F000
0C3C00
380E00
300700
700780
600780
E00380
E003C0
E003C0
E003C0
E003C0
E00380
700380
700380
380700
380600
0E1C00
03F000
ENDCHAR
STARTCHAR Ocircumflex
ENCODING 212
SWIDTH 747 0
DWIDTH 18 0
BBX 18 24 0 1
BITMAP
008000
01C000
016000
023000
041800
080000
07F000
0C3C00
380E00
300700
700780
600780
E00380
E003C0
E003C0
E003C0
E003C0
E00380
700380
700380
380700
380600
0E1C00
03F000
ENDCHAR
STARTCHAR Otilde
ENCODING 213
SWIDTH 747 0
DWIDTH 18 0
BBX 18 23 0 1
BITMAP
038000
05C800
08F800
007000
000000
07F000
0C3C00
380E00
300700
700780
600780
E00380
E003C0
E003C0
E003C0
E003C0
E00380
700380
700380
380700
380600
0E1C00
03F000
ENDCHAR
STARTCHAR Odieresis
ENCODING 214
SWIDTH 747 0
DWIDTH 18 0
BBX 18 23 0 1
BITMAP
077000
077000
077000
000000
000000
07F000
0C3C00
380E00
300700
700780
600780
E00380
E003C0
E003C0
E003C0
E003C0
E00380
700380
700380
380700
380600
0E1C00
03F000
ENDCHAR
STARTCHAR multiply
ENCODING 215
SWIDTH 541 0
DWIDTH 13 0
BBX 11 14 1 0
BITMAP
0020
0040
0080
6100
3300
1A00
0C00
0B00
1180
10C0
2000
4000
C000
8000
ENDCHAR
STARTCHAR Oslash
ENCODING 216
SWIDTH 747 0
DWIDTH 18 0
BBX 17 23 0 -1
BITMAP
000080
000100
000100
07F200
1C3E00
380E00
300F00
701F00
601780
E02380
E04380
E0C380
E08380
E10380
E30380
720380
740300
780700
380600
1E1C00
23F000
200000
400000
ENDCHAR
STARTCHAR Ugrave
ENCODING 217
SWIDTH 690 0
DWIDTH 17 0
BBX 18 25 0 1
BITMAP
030000
038000
018000
00C000
004000
000000
000000
000000
01C000
0F0000
FE0000
3E7FC0
1E0E00
1C0600
1C0200
1C0200
1C0200
1C0200
1C0200
1E0400
0E0400
0E0400
070400
078800
01F000
ENDCHAR
STARTCHAR Uacute
ENCODING 218
SWIDTH 690 0
DWIDTH 17 0
BBX 18 22 0 1
BITMAP
000200
000600
000400
000C00
000800
01C000
0F0000
FE0000
3E7FC0
1E0E00
1C0600
1C0200
1C0200
1C0200
1C0200
1C0200
1E0400
0E0400
0E0400
070400
078800
01F000
ENDCHAR
STARTCHAR Ucircumflex
ENCODING 219
SWIDTH 690 0
DWIDTH 17 0
BBX 18 23 0 1
BITMAP
002000
006000
00B000
011C00
010600
060000
01C000
0F0000
FE0000
3E7FC0
1E0E00
1C0600
1C0200
1C0200
1C0200
1C0200
1C0200
1E0400
0E0400
0E0400
070400
078800
01F000
ENDCHAR
STARTCHAR Udieresis
ENCODING 220
SWIDTH 690 0
DWIDTH 17 0
BBX 18 23 0 1
BITMAP
019800
03B800
019800
000000
000000
000000
01C000
0F0000
FE0000
3E7FC0
1E0E00
1C0600
1C0200
1C0200
1C0200
1C0200
1C0200
1E0400
0E0400
0E0400
070400
078800
01F000
ENDCHAR
STARTCHAR Yacute
ENCODING 221
SWIDTH 796 0
DWIDTH 19 0
BBX 21 29 0 -3
BITMAP
000200
000600
000400
000800
000800
000000
070000
FC0300
3C01F8
1E0080
0E0100
070200
038400
01C800
01F800
00F000
007000
007000
007000
007000
007000
007000
007000
007000
007000
007000
00F000
07F800
000C00
ENDCHAR
STARTCHAR Thorn
ENCODING 222
SWIDTH 479 0
DWIDTH 12 0
BBX 11 23 1 -1
BITMAP
FE00
3800
3000
3000
3000
3F80
31C0
30E0
30E0
30E0
30E0
30E0
31C0
3F80
3000
3000
3000
3000
3000
3000
3000
7000
FC00
ENDCHAR
STARTCHAR germandbls
ENCODING 223
SWIDTH 591 0
DWIDTH 14 0
BBX 15 26 -1 -3
BITMAP
1E00
2300
2180
6180
4180
4180
6180
6100
6300
6400
6FC0
31F0
3078
303C
301C
381E
380E
180E
180E
1C06
1CC4
1DC4
1FC8
38F0
6000
8000
ENDCHAR
STARTCHAR agrave
ENCODING 224
SWIDTH 527 0
DWIDTH 13 0
BBX 13 23 0 -2
BITMAP
4000
E000
3000
3000
1000
0800
1E00
2300
4380
6180
7180
7980
31C0
01C0
3FC0
61C0
C1C0
C1C0
E3E0
FEE8
7CE8
0078
0070
ENDCHAR
STARTCHAR aacute
ENCODING 225
SWIDTH 527 0
DWIDTH 13 0
BBX 13 23 0 -2
BITMAP
0100
0300
0200
0600
0400
0000
1E00
2300
4380
6180
7180
7980
31C0
01C0
3FC0
61C0
C1C0
C1C0
E3E0
FEE8
7CE8
0078
0070
ENDCHAR
STARTCHAR acircumflex
ENCODING 226
SWIDTH 527 0
DWIDTH 13 0
BBX 13 22 0 -2
BITMAP
0400
0600
0B00
1180
20C0
5E00
2300
4380
6180
7180
7980
31C0
01C0
3FC0
61C0
C1C0
C1C0
E3E0
FEE8
7CE8
0078
0070
ENDCHAR
STARTCHAR atilde
ENCODING 227
SWIDTH 527 0
DWIDTH 13 0
BBX 13 21 0 -2
BITMAP
1C00
2640
23C0
01C0
1E00
2300
4380
6180
7180
7980
31C0
01C0
3FC0
61C0
C1C0
C1C0
E3E0
FEE8
7CE8
0078
0070
ENDCHAR
STARTCHAR adieresis
ENCODING 228
SWIDTH 527 0
DWIDTH 13 0
BBX 13 21 0 -2
BITMAP
3800
3B00
3B00
0000
1E00
2300
4380
6180
7180
7980
31C0
01C0
3FC0
61C0
C1C0
C1C0
E3E0
FEE8
7CE8
0078
0070
ENDCHAR
STARTCHAR aring
ENCODING 229
SWIDTH 527 0
DWIDTH 13 0
BBX 13 24 0 -2
BITMAP
0F00
1180
1080
1080
1F00
0F00
0000
1E00
2300
4380
6180
7180
7980
31C0
01C0
3FC0
61C0
C1C0
C1C0
E3E0
FEE8
7CE8
0078
0070
ENDCHAR
STARTCHAR ae
ENCODING 230
SWIDTH 700 0
DWIDTH 17 0
BBX 16 16 0 -2
BITMAP
003C
00C6
3906
4D06
4506
660E
661C
1FF0
3700
6301
C301
C381
C781
C5E3
F9FE
787C
ENDCHAR
STARTCHAR ccedilla
ENCODING 231
SWIDTH 437 0
DWIDTH 11 0
BBX 10 20 0 -5
BITMAP
0F00
3780
6380
4380
C380
C000
C080
C040
E040
E040
7080
3F80
1F00
0400
0400
0F00
0300
2300
1300
0E00
ENDCHAR
STARTCHAR egrave
ENCODING 232
SWIDTH 434 0
DWIDTH 10 0
BBX 10 20 0 1
BITMAP
6000
3000
3000
1800
0800
0000
0000
0F00
3180
71C0
60C0
E1C0
E180
E380
FE80
E040
E040
7080
3880
1F00
ENDCHAR
STARTCHAR eacute
ENCODING 233
SWIDTH 434 0
DWIDTH 10 0
BBX 10 19 0 1
BITMAP
0100
0300
0200
0600
0400
0000
0F00
3180
71C0
60C0
E1C0
E180
E380
FE80
E040
E040
7080
3880
1F00
ENDCHAR
STARTCHAR ecircumflex
ENCODING 234
SWIDTH 434 0
DWIDTH 10 0
BBX 10 20 0 1
BITMAP
0400
0E00
0B00
1180
20C0
4000
0000
0F00
3180
71C0
60C0
E1C0
E180
E380
FE80
E040
E040
7080
3880
1F00
ENDCHAR
STARTCHAR edieresis
ENCODING 235
SWIDTH 434 0
DWIDTH 10 0
BBX 10 18 0 1
BITMAP
1800
1D80
1980
0000
0000
0F00
3180
71C0
60C0
E1C0
E180
E380
FE80
E040
E040
7080
3880
1F00
ENDCHAR
STARTCHAR igrave
ENCODING 236
SWIDTH 301 0
DWIDTH 7 0
BBX 8 20 -1 2
BITMAP
80
C0
60
20
10
00
00
04
7C
1C
1C
1C
1C
1C
18
18
18
18
1C
7F
ENDCHAR
STARTCHAR iacute
ENCODING 237
SWIDTH 301 0
DWIDTH 7 0
BBX 7 19 0 2
BITMAP
0C
08
18
10
20
00
08
F8
38
38
38
38
38
30
30
30
30
38
FE
ENDCHAR
STARTCHAR icircumflex
ENCODING 238
SWIDTH 301 0
DWIDTH 7 0
BBX 9 19 -1 2
BITMAP
0800
1C00
1600
2300
4180
8000
0400
7C00
1C00
1C00
1C00
1C00
1C00
1800
1800
1800
1800
1C00
7F00
ENDCHAR
STARTCHAR idieresis
ENCODING 239
SWIDTH 301 0
DWIDTH 7 0
BBX 7 18 0 2
BITMAP
60
76
66
00
00
08
F8
38
38
38
38
38
30
30
30
30
38
FE
ENDCHAR
STARTCHAR eth
ENCODING 240
SWIDTH 476 0
DWIDTH 11 0
BBX 13 22 -2 -2
BITMAP
00C0
0080
1F00
6180
82C0
0460
0460
0030
0030
0030
0038
07F8
0C78
0C38
1C38
1818
1C18
1C18
1C10
0E10
0620
03C0
ENDCHAR
STARTCHAR ntilde
ENCODING 241
SWIDTH 584 0
DWIDTH 14 0
BBX 13 20 1 0
BITMAP
0700
0B90
11F0
00E0
1000
1000
31E0
73F0
B470
3430
3830
1830
1830
1830
1830
1830
1870
1DF0
7E30
0008
ENDCHAR
STARTCHAR ograve
ENCODING 242
SWIDTH 400 0
DWIDTH 10 0
BBX 15 20 1 4
BITMAP
000E
000E
000E
0002
8002
C002
6004
2004
1008
0010
0060
3F80
7600
E300
E380
C380
C380
E300
6700
3C00
ENDCHAR
STARTCHAR oacute
ENCODING 243
SWIDTH 400 0
DWIDTH 10 0
BBX 15 20 1 4
BITMAP
000E
000E
000E
0002
0202
0602
0404
0C04
0808
0010
0060
3F80
7600
E300
E380
C380
C380
E300
6700
3C00
ENDCHAR
STARTCHAR ocircumflex
ENCODING 244
SWIDTH 400 0
DWIDTH 10 0
BBX 15 20 1 4
BITMAP
000E
000E
000E
0002
0802
1C02
1604
2304
4188
8010
0060
3F80
7600
E300
E380
C380
C380
E300
6700
3C00
ENDCHAR
STARTCHAR otilde
ENCODING 245
SWIDTH 400 0
DWIDTH 10 0
BBX 15 20 1 4
BITMAP
000E
000E
000E
0002
0002
0002
3804
4C84
4788
0310
0060
3F80
7600
E300
E380
C380
C380
E300
6700
3C00
ENDCHAR
STARTCHAR odieresis
ENCODING 246
SWIDTH 400 0
DWIDTH 10 0
BBX 15 20 1 4
BITMAP
000E
000E
000E
0002
0002
0002
3004
7604
3608
0010
0060
3F80
7600
E300
E380
C380
C380
E300
6700
3C00
ENDCHAR
STARTCHAR divide
ENCODING 247
SWIDTH 592 0
DWIDTH 14 0
BBX 12 10 1 2
BITMAP
0E00
0E00
0000
0000
0000
FFF0
0000
0E00
0E00
0E00
ENDCHAR
STARTCHAR oslash
ENCODING 248
SWIDTH 396 0
DWIDTH 10 0
BBX 8 15 0 0
BITMAP
04
08
3C
6F
CB
CB
D3
D3
D3
66
3C
20
20
20
40
ENDCHAR
STARTCHAR ugrave
ENCODING 249
SWIDTH 744 0
DWIDTH 18 0
BBX 17 19 0 0
BITMAP
040000
060000
030000
010000
008000
000000
080800
18FC00
381C00
F81C00
180C00
181C00
1C1C00
1C1C00
1C1C00
0E2F80
0E2400
07C000
038000
ENDCHAR
STARTCHAR uacute
ENCODING 250
SWIDTH 744 0
DWIDTH 18 0
BBX 17 19 0 0
BITMAP
004000
00C000
008000
008000
010000
000000
080800
18FC00
381C00
F81C00
180C00
181C00
1C1C00
1C1C00
1C1C00
0E2F80
0E2400
07C000
038000
ENDCHAR
STARTCHAR ucircumflex
ENCODING 251
SWIDTH 744 0
DWIDTH 18 0
BBX 17 19 0 0
BITMAP
010000
018000
02C000
046000
083000
100000
080800
18FC00
381C00
F81C00
180C00
181C00
1C1C00
1C1C00
1C1C00
0E2F80
0E2400
07C000
038000
ENDCHAR
STARTCHAR udieresis
ENCODING 252
SWIDTH 744 0
DWIDTH 18 0
BBX 17 18 0 0
BITMAP
030000
072000
036000
000000
000000
080800
18FC00
381C00
F81C00
180C00
181C00
1C1C00
1C1C00
1C1C00
0E2F80
0E2400
07C000
038000
ENDCHAR
STARTCHAR yacute
ENCODING 253
SWIDTH 659 0
DWIDTH 16 0
BBX 15 28 1 -11
BITMAP
0060
0040
00C0
0080
0700
0C00
38FE
F03C
701C
301C
381C
381C
3818
1C38
1E78
0FD8
0798
0018
0010
0010
0030
0030
1E20
1E20
2E40
20C0
3180
1E00
ENDCHAR
STARTCHAR thorn
ENCODING 254
SWIDTH 514 0
DWIDTH 12 0
BBX 13 35 -1 -15
BITMAP
0C00
3800
F000
3000
3000
3000
3000
1800
1BC0
1CE0
1870
1870
1838
1838
1838
1838
1838
1838
1870
1CF0
1BE0
1800
1C00
1C00
1C00
1C00
1C00
1C00
1C00
1C00
1C00
1C00
3C00
7E00
0180
ENDCHAR
STARTCHAR ydieresis
ENCODING 255
SWIDTH 659 0
DWIDTH 16 0
BBX 15 29 1 -11
BITMAP
0300
0760
0360
0000
0000
0600
0C00
38FE
F03C
701C
301C
381C
381C
3818
1C38
1E78
0FD8
0798
0018
0010
0010
0030
0030
1E20
1E20
2E40
20C0
3180
1E00
ENDCHAR
STARTCHAR dotlessi
ENCODING 305
SWIDTH 301 0
DWIDTH 7 0
BBX 7 13 0 2
BITMAP
08
F8
38
38
38
38
38
30
30
30
30
38
FE
ENDCHAR
STARTCHAR OE
ENCODING 338
SWIDTH 1132 0
DWIDTH 27 0
BBX 27 24 0 -4
BITMAP
00000100
00000700
07E7FF00
0C19C100
380D8100
30078100
7003C000
6003C000
E003C000
E001C200
E001C200
F001C600
F001FE00
F001C200
7801C200
7803C000
3C07C020
1F0DC020
0FF9C020
03F1C040
0001E040
0001E1E0
0001FFE0
000F0000
ENDCHAR
STARTCHAR oe
ENCODING 339
SWIDTH 798 0
DWIDTH 19 0
BBX 18 12 0 1
BITMAP
1E0F00
631980
61B080
C1F080
C0F180
E0F380
E0FE40
E0F040
70F040
39B040
1E1840
000F80
ENDCHAR
STARTCHAR circumflex
ENCODING 710
SWIDTH 483 0
DWIDTH 12 0
BBX 9 6 1 15
BITMAP
0800
0C00
1600
2300
4080
8000
ENDCHAR
STARTCHAR caron
ENCODING 711
SWIDTH 428 0
DWIDTH 10 0
BBX 8 6 1 16
BITMAP
83
42
24
38
18
10
ENDCHAR
STARTCHAR ring
ENCODING 730
SWIDTH 330 0
DWIDTH 8 0
BBX 6 6 1 20
BITMAP
78
C4
84
C4
FC
78
ENDCHAR
STARTCHAR tilde
ENCODING 732
SWIDTH 433 0
DWIDTH 10 0
BBX 8 4 1 17
BITMAP
70
99
8F
06
ENDCHAR
STARTCHAR mu.dup1
ENCODING 956
SWIDTH 634 0
DWIDTH 15 0
BBX 14 20 1 -7
BITMAP
C000
C1C0
C1C0
C0C0
C0C0
C0C0
C0C8
E0C4
E0E4
D164
CE7C
C038
C000
E000
E000
E000
E000
E000
E000
E000
ENDCHAR
STARTCHAR endash
ENCODING 8211
SWIDTH 436 0
DWIDTH 10 0
BBX 8 1 1 5
BITMAP
FF
ENDCHAR
STARTCHAR emdash
ENCODING 8212
SWIDTH 651 0
DWIDTH 16 0
BBX 13 2 1 5
BITMAP
07F8
F800
ENDCHAR
STARTCHAR quoteleft
ENCODING 8216
SWIDTH 287 0
DWIDTH 7 0
BBX 4 8 1 12
BITMAP
10
20
60
E0
F0
F0
F0
60
ENDCHAR
STARTCHAR quoteright
ENCODING 8217
SWIDTH 291 0
DWIDTH 7 0
BBX 5 8 1 11
BITMAP
70
F8
F8
78
38
18
10
60
ENDCHAR
STARTCHAR quotesinglbase
ENCODING 8218
SWIDTH 272 0
DWIDTH 7 0
BBX 4 8 1 -4
BITMAP
60
F0
F0
70
30
20
20
40
ENDCHAR
STARTCHAR quotedblleft
ENCODING 8220
SWIDTH 445 0
DWIDTH 11 0
BBX 8 9 1 10
BITMAP
08
33
62
66
E6
E7
F7
F3
60
ENDCHAR
STARTCHAR quotedblright
ENCODING 8221
SWIDTH 444 0
DWIDTH 11 0
BBX 8 9 1 11
BITMAP
E0
F6
FF
7F
37
22
26
44
18
ENDCHAR
STARTCHAR quotedblbase
ENCODING 8222
SWIDTH 482 0
DWIDTH 12 0
BBX 9 9 1 -6
BITMAP
6000
F300
F780
7780
3380
3100
2300
4200
0400
ENDCHAR
STARTCHAR bullet
ENCODING 8226
SWIDTH 351 0
DWIDTH 8 0
BBX 6 6 1 7
BITMAP
78
FC
FC
FC
FC
78
ENDCHAR
STARTCHAR guilsinglleft
ENCODING 8249
SWIDTH 465 0
DWIDTH 11 0
BBX 9 15 1 -2
BITMAP
0200
0200
0400
0400
0800
1800
3000
F000
7800
1C00
0E00
0600
0300
0100
0080
ENDCHAR
STARTCHAR guilsinglright
ENCODING 8250
SWIDTH 449 0
DWIDTH 11 0
BBX 9 15 1 -2
BITMAP
4000
4000
2000
3000
1800
0E00
0F00
0E80
1C00
3800
3000
6000
4000
4000
8000
ENDCHAR
STARTCHAR fraction
ENCODING 8260
SWIDTH 406 0
DWIDTH 10 0
BBX 17 22 -4 0
BITMAP
000180
000100
000200
000600
000400
000800
001000
003000
002000
004000
00C000
008000
010000
020000
060000
040000
080000
100000
100000
200000
400000
C00000
ENDCHAR
STARTCHAR foursuperior
ENCODING 8308
SWIDTH 473 0
DWIDTH 11 0
BBX 11 14 0 8
BITMAP
0400
0400
0C00
0C00
1C00
2C80
2680
4680
4780
7F80
8600
0700
0700
1FE0
ENDCHAR
STARTCHAR Euro
ENCODING 8364
SWIDTH 799 0
DWIDTH 19 0
BBX 20 20 0 -1
BITMAP
000010
007E10
01E1E0
0380E0
070060
070040
0E0040
0E1840
1EE000
1F2000
7ED000
1F0000
3E0000
FE0080
1E0080
0E0080
0F0100
078300
03FE00
00F800
ENDCHAR
STARTCHAR minus
ENCODING 8722
SWIDTH 436 0
DWIDTH 10 0
BBX 8 1 1 5
BITMAP
FF
ENDCHAR
STARTCHAR f_f
ENCODING 64256
SWIDTH 467 0
DWIDTH 11 0
BBX 14 36 0 -8
BITMAP
0380
0FC0
0BC0
1180
1078
109C
119C
311C
333C
333C
2338
2300
3300
3300
3FE0
7300
3300
3300
3300
3100
3180
3180
3180
3980
39C0
18C0
18E0
18F8
18C0
1D00
1C00
1C00
1C00
1E00
3E00
FFC0
ENDCHAR
STARTCHAR .notdef
ENCODING -1
SWIDTH 270 0
DWIDTH 6 0
BBX 5 15 1 0
BITMAP
F8
88
88
88
88
88
88
88
88
88
88
88
88
88
F8
ENDCHAR
STARTCHAR .null
ENCODING -1
SWIDTH 0 0
DWIDTH 0 0
BBX 1 1 0 0
BITMAP
00
ENDCHAR
STARTCHAR nonmarkingreturn
ENCODING -1
SWIDTH 270 0
DWIDTH 6 0
BBX 1 1 0 0
BITMAP
00
ENDCHAR
STARTCHAR dieresis.case
ENCODING -1
SWIDTH 393 0
DWIDTH 9 0
BBX 7 3 1 18
BITMAP
EE
EE
EE
ENDCHAR
STARTCHAR o.cmp
ENCODING -1
SWIDTH 400 0
DWIDTH 10 0
BBX 15 20 1 4
BITMAP
000E
000E
000E
0002
0002
0002
0004
0004
0008
0010
0060
3F80
7600
E300
E380
C380
C380
E300
6700
3C00
ENDCHAR
STARTCHAR n_n
ENCODING -1
SWIDTH 1024 0
DWIDTH 25 0
BBX 24 16 1 -1
BITMAP
100000
31E000
73F000
F47080
34379C
3831EE
3831C6
183187
183187
183187
183186
183186
1C73EE
7FF43E
001801
000800
ENDCHAR
STARTCHAR a_a
ENCODING -1
SWIDTH 911 0
DWIDTH 22 0
BBX 22 16 0 -2
BITMAP
000F00
003180
0030C0
3C38C0
4438C0
C600C0
E23EC0
6261C0
02E0E0
3ED8E0
72C8E0
E2E9E0
E37EE0
E73CE4
78F064
000038
ENDCHAR
STARTCHAR t_h
ENCODING -1
SWIDTH 854 0
DWIDTH 21 0
BBX 21 30 -1 -4
BITMAP
001000
007000
03F000
007000
003000
003000
003000
013000
013000
033000
0F3000
7FF800
8E3000
0E33C0
0E3C60
0E7070
0E7030
0C7030
0C7338
0E6730
0E6330
066330
066330
03E670
01F870
00F060
01FC60
0300E0
0003F0
000018
ENDCHAR
STARTCHAR s_s
ENCODING -1
SWIDTH 654 0
DWIDTH 16 0
BBX 16 20 -1 -3
BITMAP
0061
07C1
0C9E
0CB2
0C62
0E62
0630
0330
01B8
01DC
20EE
206E
2367
6767
6667
94C7
0F87
0407
030E
00F8
ENDCHAR
STARTCHAR t_t
ENCODING -1
SWIDTH 569 0
DWIDTH 14 0
BBX 13 21 0 -2
BITMAP
0180
0580
0B80
0B90
3BE0
FF80
3B00
3B00
3B00
3B00
3300
3300
3338
3138
3188
38C8
1870
1870
0C70
0C70
03E0
ENDCHAR
STARTCHAR e_e
ENCODING -1
SWIDTH 782 0
DWIDTH 19 0
BBX 18 14 0 0
BITMAP
1E1E00
333300
636100
E36180
E3E180
E2C180
ECC100
F8C100
E0E240
70E640
706440
1C7840
07F840
000F80
ENDCHAR
STARTCHAR o_o
ENCODING -1
SWIDTH 751 0
DWIDTH 18 0
BBX 24 21 0 2
BITMAP
000007
000007
000007
000001
000001
000001
000002
000002
000004
000008
1F0030
31B7C0
60E300
E0C180
E0E180
C0E180
C0C180
C0E380
60FE00
718000
1E0000
ENDCHAR
STARTCHAR l_l
ENCODING -1
SWIDTH 573 0
DWIDTH 14 0
BBX 15 24 -1 -3
BITMAP
0820
18E0
3BE0
D8E0
1860
1860
1860
1860
1860
1860
1870
1C70
1C70
1C70
1C70
1C70
1C70
1C70
1C78
1DFE
1C00
FC00
1E00
0300
ENDCHAR
STARTCHAR z_z
ENCODING -1
SWIDTH 875 0
DWIDTH 21 0
BBX 22 16 -1 -2
BITMAP
010200
01FE00
320C00
2FEC00
43C800
079800
073800
0E3000
0E7080
1C7080
38E198
38FFBC
70001C
7FC018
C07C18
0007E0
ENDCHAR
STARTCHAR j_j
ENCODING -1
SWIDTH 577 0
DWIDTH 14 0
BBX 16 33 -3 -15
BITMAP
0038
0038
03B8
03B8
0388
00FC
007C
1FDC
03CE
01CE
01EE
00E6
00E6
00E7
0067
0067
0063
0063
0063
0063
0063
0063
3863
7843
F843
E0C3
8082
8182
4302
3FC4
01C4
01E8
00F0
ENDCHAR
STARTCHAR f_b
ENCODING -1
SWIDTH 731 0
DWIDTH 18 0
BBX 19 31 -2 -4
BITMAP
01E000
033000
021000
041800
047800
04F000
04F000
0CE800
0C3800
0CF800
0CF800
7F1800
8C1800
0C1800
0C1800
0C1800
0C1800
0C1800
0C1800
0C1F80
0C19C0
0C18E0
0C18E0
0C18E0
0C18E0
0C19C0
0C3F80
0C4000
0E0000
0FC000
300000
ENDCHAR
STARTCHAR f_k
ENCODING -1
SWIDTH 708 0
DWIDTH 17 0
BBX 17 27 0 -3
BITMAP
030000
070000
3FE000
073000
0F3000
0B7000
1B7000
137000
130000
330000
330000
736000
331E00
331000
332000
334000
33E000
33E000
336100
337080
333080
333880
331F80
338F00
FB8000
078000
1FF000
ENDCHAR
STARTCHAR f_h
ENCODING -1
SWIDTH 873 0
DWIDTH 21 0
BBX 22 30 -2 -3
BITMAP
00F000
031800
021800
043800
047800
04F400
04FC00
0C1C00
0CFC00
0C1800
0FC800
3C0800
CC0800
0C1800
0C1800
0C1800
0C1800
0C19C0
0C1EE0
0C1C70
0C1870
0C1870
0C1870
0C1870
0C1870
0C3870
0C38FC
0EFD00
0F8400
300000
ENDCHAR
ENDFONT
